<mxfile host="app.diagrams.net" modified="2022-10-31T06:38:27.498Z" agent="5.0 (Macintosh; Intel Mac OS X 10_15_7) AppleWebKit/605.1.15 (KHTML, like Gecko) Version/16.1 Safari/605.1.15" etag="TWCsVXFV-_bSMXebPyPw" version="20.5.1" type="github">
  <diagram name="Page-1" id="74e2e168-ea6b-b213-b513-2b3c1d86103e">
    <mxGraphModel dx="1886" dy="489" grid="1" gridSize="10" guides="1" tooltips="1" connect="1" arrows="1" fold="1" page="1" pageScale="1" pageWidth="1100" pageHeight="850" background="none" math="0" shadow="0">
      <root>
        <mxCell id="0" />
        <mxCell id="1" parent="0" />
        <mxCell id="77e6c97f196da883-1" value="&lt;font style=&quot;font-size: 15px;&quot;&gt;门诊挂号&lt;/font&gt;" style="swimlane;html=1;childLayout=stackLayout;startSize=20;rounded=0;shadow=0;labelBackgroundColor=none;strokeWidth=1;fontFamily=Verdana;fontSize=8;align=center;" parent="1" vertex="1">
          <mxGeometry x="-20" y="40" width="620" height="1250" as="geometry" />
        </mxCell>
        <mxCell id="77e6c97f196da883-2" value="基层医疗机构" style="swimlane;html=1;startSize=20;aspect=fixed;" parent="77e6c97f196da883-1" vertex="1">
          <mxGeometry y="20" width="200" height="1230" as="geometry" />
        </mxCell>
        <mxCell id="77e6c97f196da883-8" value="诊间转诊" style="rounded=1;whiteSpace=wrap;html=1;shadow=0;labelBackgroundColor=none;strokeWidth=1;fontFamily=Verdana;fontSize=12;align=center;fillColor=#fff2cc;strokeColor=#d6b656;" parent="77e6c97f196da883-2" vertex="1">
          <mxGeometry x="40" y="40" width="90" height="35" as="geometry" />
        </mxCell>
        <mxCell id="57HQDjPQBf11Cq4bDGbG-71" style="edgeStyle=none;shape=connector;curved=1;rounded=1;orthogonalLoop=1;jettySize=auto;html=1;exitX=0.5;exitY=1;exitDx=0;exitDy=0;entryX=0.5;entryY=0;entryDx=0;entryDy=0;labelBackgroundColor=default;strokeColor=default;fontFamily=Helvetica;fontSize=12;fontColor=default;endArrow=classic;" edge="1" parent="77e6c97f196da883-2" source="57HQDjPQBf11Cq4bDGbG-11" target="77e6c97f196da883-13">
          <mxGeometry relative="1" as="geometry" />
        </mxCell>
        <mxCell id="57HQDjPQBf11Cq4bDGbG-11" value="登记信息并选择医院" style="rounded=1;whiteSpace=wrap;html=1;shadow=0;labelBackgroundColor=none;strokeWidth=1;fontFamily=Verdana;fontSize=12;align=center;" vertex="1" parent="77e6c97f196da883-2">
          <mxGeometry x="40" y="140" width="90" height="35" as="geometry" />
        </mxCell>
        <mxCell id="77e6c97f196da883-13" value="上级医疗机构系统接口是否对接" style="rhombus;whiteSpace=wrap;html=1;rounded=0;shadow=0;labelBackgroundColor=none;strokeWidth=1;fontFamily=Verdana;fontSize=8;align=center;" parent="77e6c97f196da883-2" vertex="1">
          <mxGeometry x="45" y="200" width="80" height="50" as="geometry" />
        </mxCell>
        <mxCell id="57HQDjPQBf11Cq4bDGbG-14" value="选择科室" style="rounded=1;whiteSpace=wrap;html=1;shadow=0;labelBackgroundColor=none;strokeWidth=1;fontFamily=Verdana;fontSize=12;align=center;" vertex="1" parent="77e6c97f196da883-2">
          <mxGeometry x="40" y="280" width="90" height="35" as="geometry" />
        </mxCell>
        <mxCell id="57HQDjPQBf11Cq4bDGbG-85" style="edgeStyle=none;shape=connector;curved=1;rounded=1;orthogonalLoop=1;jettySize=auto;html=1;exitX=0.5;exitY=1;exitDx=0;exitDy=0;entryX=0.5;entryY=0;entryDx=0;entryDy=0;labelBackgroundColor=default;strokeColor=default;fontFamily=Helvetica;fontSize=12;fontColor=default;endArrow=classic;" edge="1" parent="77e6c97f196da883-2" source="57HQDjPQBf11Cq4bDGbG-45" target="57HQDjPQBf11Cq4bDGbG-38">
          <mxGeometry relative="1" as="geometry" />
        </mxCell>
        <mxCell id="57HQDjPQBf11Cq4bDGbG-45" value="选择排班" style="rounded=1;whiteSpace=wrap;html=1;shadow=0;labelBackgroundColor=none;strokeWidth=1;fontFamily=Verdana;fontSize=12;align=center;" vertex="1" parent="77e6c97f196da883-2">
          <mxGeometry x="45" y="420" width="90" height="35" as="geometry" />
        </mxCell>
        <mxCell id="57HQDjPQBf11Cq4bDGbG-108" value="否" style="edgeStyle=none;shape=connector;curved=1;rounded=1;orthogonalLoop=1;jettySize=auto;html=1;exitX=0.5;exitY=1;exitDx=0;exitDy=0;entryX=0.5;entryY=0;entryDx=0;entryDy=0;labelBackgroundColor=default;strokeColor=default;fontFamily=Helvetica;fontSize=12;fontColor=default;endArrow=classic;" edge="1" parent="77e6c97f196da883-2" source="57HQDjPQBf11Cq4bDGbG-38" target="57HQDjPQBf11Cq4bDGbG-50">
          <mxGeometry relative="1" as="geometry" />
        </mxCell>
        <mxCell id="57HQDjPQBf11Cq4bDGbG-38" value="上级医疗机构系统是否分时段预约" style="rhombus;whiteSpace=wrap;html=1;rounded=0;shadow=0;labelBackgroundColor=none;strokeWidth=1;fontFamily=Verdana;fontSize=8;align=center;" vertex="1" parent="77e6c97f196da883-2">
          <mxGeometry x="45" y="490" width="80" height="50" as="geometry" />
        </mxCell>
        <mxCell id="57HQDjPQBf11Cq4bDGbG-50" value="确认提交" style="rounded=1;whiteSpace=wrap;html=1;shadow=0;labelBackgroundColor=none;strokeWidth=1;fontFamily=Verdana;fontSize=12;align=center;" vertex="1" parent="77e6c97f196da883-2">
          <mxGeometry x="45" y="580" width="90" height="35" as="geometry" />
        </mxCell>
        <mxCell id="57HQDjPQBf11Cq4bDGbG-97" value="转诊申请失败" style="rounded=1;whiteSpace=wrap;html=1;shadow=0;labelBackgroundColor=none;strokeWidth=1;fontFamily=Verdana;fontSize=12;align=center;fillColor=#e51400;fontColor=#ffffff;strokeColor=#B20000;" vertex="1" parent="77e6c97f196da883-2">
          <mxGeometry x="40" y="690" width="90" height="35" as="geometry" />
        </mxCell>
        <mxCell id="57HQDjPQBf11Cq4bDGbG-106" value="转诊申请成功" style="rounded=1;whiteSpace=wrap;html=1;shadow=0;labelBackgroundColor=none;strokeWidth=1;fontFamily=Verdana;fontSize=12;align=center;fillColor=#d5e8d4;strokeColor=#82b366;" vertex="1" parent="77e6c97f196da883-2">
          <mxGeometry x="45" y="820" width="90" height="35" as="geometry" />
        </mxCell>
        <mxCell id="57HQDjPQBf11Cq4bDGbG-112" style="edgeStyle=none;shape=connector;curved=1;rounded=1;orthogonalLoop=1;jettySize=auto;html=1;exitX=0;exitY=0.5;exitDx=0;exitDy=0;labelBackgroundColor=default;strokeColor=#BD7000;fontFamily=Helvetica;fontSize=12;fontColor=default;endArrow=classic;entryX=0;entryY=0;entryDx=0;entryDy=0;fillColor=#f0a30a;" edge="1" parent="77e6c97f196da883-2" source="77e6c97f196da883-13" target="57HQDjPQBf11Cq4bDGbG-50">
          <mxGeometry relative="1" as="geometry">
            <Array as="points">
              <mxPoint y="400" />
            </Array>
          </mxGeometry>
        </mxCell>
        <mxCell id="57HQDjPQBf11Cq4bDGbG-113" value="否" style="edgeLabel;html=1;align=center;verticalAlign=middle;resizable=0;points=[];fontSize=12;fontFamily=Helvetica;fontColor=default;" vertex="1" connectable="0" parent="57HQDjPQBf11Cq4bDGbG-112">
          <mxGeometry x="-0.1595" y="16" relative="1" as="geometry">
            <mxPoint as="offset" />
          </mxGeometry>
        </mxCell>
        <mxCell id="77e6c97f196da883-3" value="双向转诊平台" style="swimlane;html=1;startSize=20;" parent="77e6c97f196da883-1" vertex="1">
          <mxGeometry x="200" y="20" width="200" height="1230" as="geometry" />
        </mxCell>
        <mxCell id="57HQDjPQBf11Cq4bDGbG-58" value="转诊登记页" style="rounded=1;whiteSpace=wrap;html=1;shadow=0;labelBackgroundColor=none;strokeWidth=1;fontFamily=Verdana;fontSize=12;align=center;" vertex="1" parent="77e6c97f196da883-3">
          <mxGeometry x="55" y="40" width="90" height="35" as="geometry" />
        </mxCell>
        <mxCell id="57HQDjPQBf11Cq4bDGbG-70" value="调用上级医疗机构预约科室接口" style="rounded=1;whiteSpace=wrap;html=1;shadow=0;labelBackgroundColor=none;strokeWidth=1;fontFamily=Verdana;fontSize=12;align=center;" vertex="1" parent="77e6c97f196da883-3">
          <mxGeometry x="55" y="205" width="90" height="35" as="geometry" />
        </mxCell>
        <mxCell id="57HQDjPQBf11Cq4bDGbG-75" value="处理返回数据" style="rounded=1;whiteSpace=wrap;html=1;shadow=0;labelBackgroundColor=none;strokeWidth=1;fontFamily=Verdana;fontSize=12;align=center;" vertex="1" parent="77e6c97f196da883-3">
          <mxGeometry x="55" y="280" width="90" height="35" as="geometry" />
        </mxCell>
        <mxCell id="57HQDjPQBf11Cq4bDGbG-78" value="调用上级医疗机构预约排班接口" style="rounded=1;whiteSpace=wrap;html=1;shadow=0;labelBackgroundColor=none;strokeWidth=1;fontFamily=Verdana;fontSize=12;align=center;" vertex="1" parent="77e6c97f196da883-3">
          <mxGeometry x="50" y="348" width="90" height="35" as="geometry" />
        </mxCell>
        <mxCell id="57HQDjPQBf11Cq4bDGbG-81" value="处理返回数据" style="rounded=1;whiteSpace=wrap;html=1;shadow=0;labelBackgroundColor=none;strokeWidth=1;fontFamily=Verdana;fontSize=12;align=center;" vertex="1" parent="77e6c97f196da883-3">
          <mxGeometry x="50" y="420" width="90" height="35" as="geometry" />
        </mxCell>
        <mxCell id="57HQDjPQBf11Cq4bDGbG-86" value="调用上级医疗机构预约号源接口" style="rounded=1;whiteSpace=wrap;html=1;shadow=0;labelBackgroundColor=none;strokeWidth=1;fontFamily=Verdana;fontSize=12;align=center;" vertex="1" parent="77e6c97f196da883-3">
          <mxGeometry x="55" y="500" width="90" height="35" as="geometry" />
        </mxCell>
        <mxCell id="57HQDjPQBf11Cq4bDGbG-90" value="处理返回数据" style="rounded=1;whiteSpace=wrap;html=1;shadow=0;labelBackgroundColor=none;strokeWidth=1;fontFamily=Verdana;fontSize=12;align=center;" vertex="1" parent="77e6c97f196da883-3">
          <mxGeometry x="55" y="580" width="90" height="35" as="geometry" />
        </mxCell>
        <mxCell id="57HQDjPQBf11Cq4bDGbG-119" style="edgeStyle=none;shape=connector;curved=1;rounded=1;orthogonalLoop=1;jettySize=auto;html=1;exitX=0.5;exitY=1;exitDx=0;exitDy=0;entryX=0.25;entryY=0;entryDx=0;entryDy=0;labelBackgroundColor=default;strokeColor=#BD7000;fontFamily=Helvetica;fontSize=12;fontColor=default;endArrow=classic;fillColor=#f0a30a;" edge="1" parent="77e6c97f196da883-3" source="57HQDjPQBf11Cq4bDGbG-93" target="57HQDjPQBf11Cq4bDGbG-104">
          <mxGeometry relative="1" as="geometry" />
        </mxCell>
        <mxCell id="57HQDjPQBf11Cq4bDGbG-120" value="平台通过" style="edgeLabel;html=1;align=center;verticalAlign=middle;resizable=0;points=[];fontSize=12;fontFamily=Helvetica;fontColor=default;" vertex="1" connectable="0" parent="57HQDjPQBf11Cq4bDGbG-119">
          <mxGeometry x="-0.6272" y="-1" relative="1" as="geometry">
            <mxPoint as="offset" />
          </mxGeometry>
        </mxCell>
        <mxCell id="57HQDjPQBf11Cq4bDGbG-93" value="统一业务规范验证" style="rounded=1;whiteSpace=wrap;html=1;shadow=0;labelBackgroundColor=none;strokeWidth=1;fontFamily=Verdana;fontSize=12;align=center;" vertex="1" parent="77e6c97f196da883-3">
          <mxGeometry x="50" y="650" width="110" height="30" as="geometry" />
        </mxCell>
        <mxCell id="57HQDjPQBf11Cq4bDGbG-98" value="处理返回数据" style="rounded=1;whiteSpace=wrap;html=1;shadow=0;labelBackgroundColor=none;strokeWidth=1;fontFamily=Verdana;fontSize=12;align=center;" vertex="1" parent="77e6c97f196da883-3">
          <mxGeometry x="55" y="740" width="90" height="35" as="geometry" />
        </mxCell>
        <mxCell id="57HQDjPQBf11Cq4bDGbG-104" value="处理返回数据，并短信通知患者和上级机构负责人" style="rounded=1;whiteSpace=wrap;html=1;shadow=0;labelBackgroundColor=none;strokeWidth=1;fontFamily=Verdana;fontSize=12;align=center;" vertex="1" parent="77e6c97f196da883-3">
          <mxGeometry x="32.5" y="810" width="135" height="45" as="geometry" />
        </mxCell>
        <mxCell id="77e6c97f196da883-4" value="上级医疗机构" style="swimlane;html=1;startSize=20;" parent="77e6c97f196da883-1" vertex="1">
          <mxGeometry x="400" y="20" width="200" height="1230" as="geometry" />
        </mxCell>
        <mxCell id="57HQDjPQBf11Cq4bDGbG-12" value="查询该机构未来两周可预约挂号科室列表（加上当天）" style="rounded=1;whiteSpace=wrap;html=1;shadow=0;labelBackgroundColor=none;strokeWidth=1;fontFamily=Verdana;fontSize=12;align=center;" vertex="1" parent="77e6c97f196da883-4">
          <mxGeometry x="60" y="200" width="100" height="45" as="geometry" />
        </mxCell>
        <mxCell id="57HQDjPQBf11Cq4bDGbG-40" value="查询该科室排班信息（包括挂号费用、剩余号数、总号数等）" style="rounded=1;whiteSpace=wrap;html=1;shadow=0;labelBackgroundColor=none;strokeWidth=1;fontFamily=Verdana;fontSize=12;align=center;" vertex="1" parent="77e6c97f196da883-4">
          <mxGeometry x="40" y="343" width="120" height="45" as="geometry" />
        </mxCell>
        <mxCell id="57HQDjPQBf11Cq4bDGbG-42" value="查询该排班的号源列表（包括号源序号、时间等）" style="rounded=1;whiteSpace=wrap;html=1;shadow=0;labelBackgroundColor=none;strokeWidth=1;fontFamily=Verdana;fontSize=12;align=center;" vertex="1" parent="77e6c97f196da883-4">
          <mxGeometry x="50" y="490" width="100" height="50" as="geometry" />
        </mxCell>
        <mxCell id="57HQDjPQBf11Cq4bDGbG-103" value="机构通过" style="edgeStyle=none;shape=connector;curved=1;rounded=1;orthogonalLoop=1;jettySize=auto;html=1;exitX=0.5;exitY=1;exitDx=0;exitDy=0;entryX=0.5;entryY=0;entryDx=0;entryDy=0;labelBackgroundColor=default;strokeColor=default;fontFamily=Helvetica;fontSize=12;fontColor=default;endArrow=classic;" edge="1" parent="77e6c97f196da883-4" source="57HQDjPQBf11Cq4bDGbG-95" target="57HQDjPQBf11Cq4bDGbG-102">
          <mxGeometry relative="1" as="geometry" />
        </mxCell>
        <mxCell id="57HQDjPQBf11Cq4bDGbG-95" value="业务验证" style="rounded=1;whiteSpace=wrap;html=1;shadow=0;labelBackgroundColor=none;strokeWidth=1;fontFamily=Verdana;fontSize=12;align=center;" vertex="1" parent="77e6c97f196da883-4">
          <mxGeometry x="60" y="650" width="100" height="30" as="geometry" />
        </mxCell>
        <mxCell id="57HQDjPQBf11Cq4bDGbG-102" value="保存申请信息和号源已用（无分时段时号源减一）" style="rounded=1;whiteSpace=wrap;html=1;shadow=0;labelBackgroundColor=none;strokeWidth=1;fontFamily=Verdana;fontSize=12;align=center;" vertex="1" parent="77e6c97f196da883-4">
          <mxGeometry x="40" y="750" width="120" height="40" as="geometry" />
        </mxCell>
        <mxCell id="57HQDjPQBf11Cq4bDGbG-60" style="edgeStyle=none;shape=connector;curved=1;rounded=1;orthogonalLoop=1;jettySize=auto;html=1;exitX=1;exitY=0.5;exitDx=0;exitDy=0;entryX=0;entryY=0.5;entryDx=0;entryDy=0;labelBackgroundColor=default;strokeColor=default;fontFamily=Helvetica;fontSize=12;fontColor=default;endArrow=classic;" edge="1" parent="77e6c97f196da883-1" source="77e6c97f196da883-8" target="57HQDjPQBf11Cq4bDGbG-58">
          <mxGeometry relative="1" as="geometry" />
        </mxCell>
        <mxCell id="57HQDjPQBf11Cq4bDGbG-61" style="edgeStyle=none;shape=connector;curved=1;rounded=1;orthogonalLoop=1;jettySize=auto;html=1;exitX=0.5;exitY=1;exitDx=0;exitDy=0;entryX=0.5;entryY=0;entryDx=0;entryDy=0;labelBackgroundColor=default;strokeColor=default;fontFamily=Helvetica;fontSize=12;fontColor=default;endArrow=classic;" edge="1" parent="77e6c97f196da883-1" source="57HQDjPQBf11Cq4bDGbG-58" target="57HQDjPQBf11Cq4bDGbG-11">
          <mxGeometry relative="1" as="geometry" />
        </mxCell>
        <mxCell id="57HQDjPQBf11Cq4bDGbG-72" style="edgeStyle=none;shape=connector;curved=1;rounded=1;orthogonalLoop=1;jettySize=auto;html=1;labelBackgroundColor=default;strokeColor=default;fontFamily=Helvetica;fontSize=12;fontColor=default;endArrow=classic;" edge="1" parent="77e6c97f196da883-1" source="77e6c97f196da883-13" target="57HQDjPQBf11Cq4bDGbG-70">
          <mxGeometry relative="1" as="geometry" />
        </mxCell>
        <mxCell id="57HQDjPQBf11Cq4bDGbG-73" value="是" style="edgeLabel;html=1;align=center;verticalAlign=middle;resizable=0;points=[];fontSize=12;fontFamily=Helvetica;fontColor=default;" vertex="1" connectable="0" parent="57HQDjPQBf11Cq4bDGbG-72">
          <mxGeometry x="-0.3368" relative="1" as="geometry">
            <mxPoint as="offset" />
          </mxGeometry>
        </mxCell>
        <mxCell id="57HQDjPQBf11Cq4bDGbG-74" style="edgeStyle=none;shape=connector;curved=1;rounded=1;orthogonalLoop=1;jettySize=auto;html=1;exitX=1;exitY=0.5;exitDx=0;exitDy=0;entryX=0;entryY=0.5;entryDx=0;entryDy=0;labelBackgroundColor=default;strokeColor=default;fontFamily=Helvetica;fontSize=12;fontColor=default;endArrow=classic;" edge="1" parent="77e6c97f196da883-1" source="57HQDjPQBf11Cq4bDGbG-70" target="57HQDjPQBf11Cq4bDGbG-12">
          <mxGeometry relative="1" as="geometry" />
        </mxCell>
        <mxCell id="57HQDjPQBf11Cq4bDGbG-76" style="edgeStyle=none;shape=connector;curved=1;rounded=1;orthogonalLoop=1;jettySize=auto;html=1;exitX=0.5;exitY=1;exitDx=0;exitDy=0;entryX=1;entryY=0.5;entryDx=0;entryDy=0;labelBackgroundColor=default;strokeColor=default;fontFamily=Helvetica;fontSize=12;fontColor=default;endArrow=classic;" edge="1" parent="77e6c97f196da883-1" source="57HQDjPQBf11Cq4bDGbG-12" target="57HQDjPQBf11Cq4bDGbG-75">
          <mxGeometry relative="1" as="geometry" />
        </mxCell>
        <mxCell id="57HQDjPQBf11Cq4bDGbG-77" style="edgeStyle=none;shape=connector;curved=1;rounded=1;orthogonalLoop=1;jettySize=auto;html=1;exitX=0;exitY=0.5;exitDx=0;exitDy=0;entryX=1;entryY=0.5;entryDx=0;entryDy=0;labelBackgroundColor=default;strokeColor=default;fontFamily=Helvetica;fontSize=12;fontColor=default;endArrow=classic;" edge="1" parent="77e6c97f196da883-1" source="57HQDjPQBf11Cq4bDGbG-75" target="57HQDjPQBf11Cq4bDGbG-14">
          <mxGeometry relative="1" as="geometry" />
        </mxCell>
        <mxCell id="57HQDjPQBf11Cq4bDGbG-79" style="edgeStyle=none;shape=connector;curved=1;rounded=1;orthogonalLoop=1;jettySize=auto;html=1;exitX=0.5;exitY=1;exitDx=0;exitDy=0;entryX=0;entryY=0.5;entryDx=0;entryDy=0;labelBackgroundColor=default;strokeColor=default;fontFamily=Helvetica;fontSize=12;fontColor=default;endArrow=classic;" edge="1" parent="77e6c97f196da883-1" source="57HQDjPQBf11Cq4bDGbG-14" target="57HQDjPQBf11Cq4bDGbG-78">
          <mxGeometry relative="1" as="geometry" />
        </mxCell>
        <mxCell id="57HQDjPQBf11Cq4bDGbG-80" style="edgeStyle=none;shape=connector;curved=1;rounded=1;orthogonalLoop=1;jettySize=auto;html=1;exitX=1;exitY=0.5;exitDx=0;exitDy=0;entryX=0;entryY=0.5;entryDx=0;entryDy=0;labelBackgroundColor=default;strokeColor=default;fontFamily=Helvetica;fontSize=12;fontColor=default;endArrow=classic;" edge="1" parent="77e6c97f196da883-1" source="57HQDjPQBf11Cq4bDGbG-78" target="57HQDjPQBf11Cq4bDGbG-40">
          <mxGeometry relative="1" as="geometry" />
        </mxCell>
        <mxCell id="57HQDjPQBf11Cq4bDGbG-82" style="edgeStyle=none;shape=connector;curved=1;rounded=1;orthogonalLoop=1;jettySize=auto;html=1;exitX=0.5;exitY=1;exitDx=0;exitDy=0;entryX=1;entryY=0.5;entryDx=0;entryDy=0;labelBackgroundColor=default;strokeColor=default;fontFamily=Helvetica;fontSize=12;fontColor=default;endArrow=classic;" edge="1" parent="77e6c97f196da883-1" source="57HQDjPQBf11Cq4bDGbG-40" target="57HQDjPQBf11Cq4bDGbG-81">
          <mxGeometry relative="1" as="geometry" />
        </mxCell>
        <mxCell id="57HQDjPQBf11Cq4bDGbG-83" style="edgeStyle=none;shape=connector;curved=1;rounded=1;orthogonalLoop=1;jettySize=auto;html=1;entryX=1;entryY=0.5;entryDx=0;entryDy=0;labelBackgroundColor=default;strokeColor=default;fontFamily=Helvetica;fontSize=12;fontColor=default;endArrow=classic;" edge="1" parent="77e6c97f196da883-1" source="57HQDjPQBf11Cq4bDGbG-81" target="57HQDjPQBf11Cq4bDGbG-45">
          <mxGeometry relative="1" as="geometry" />
        </mxCell>
        <mxCell id="57HQDjPQBf11Cq4bDGbG-87" style="edgeStyle=none;shape=connector;curved=1;rounded=1;orthogonalLoop=1;jettySize=auto;html=1;exitX=1;exitY=0.5;exitDx=0;exitDy=0;entryX=0;entryY=0.5;entryDx=0;entryDy=0;labelBackgroundColor=default;strokeColor=default;fontFamily=Helvetica;fontSize=12;fontColor=default;endArrow=classic;" edge="1" parent="77e6c97f196da883-1" source="57HQDjPQBf11Cq4bDGbG-38" target="57HQDjPQBf11Cq4bDGbG-86">
          <mxGeometry relative="1" as="geometry" />
        </mxCell>
        <mxCell id="57HQDjPQBf11Cq4bDGbG-88" value="是" style="edgeLabel;html=1;align=center;verticalAlign=middle;resizable=0;points=[];fontSize=12;fontFamily=Helvetica;fontColor=default;" vertex="1" connectable="0" parent="57HQDjPQBf11Cq4bDGbG-87">
          <mxGeometry x="-0.1994" y="-2" relative="1" as="geometry">
            <mxPoint as="offset" />
          </mxGeometry>
        </mxCell>
        <mxCell id="57HQDjPQBf11Cq4bDGbG-89" style="edgeStyle=none;shape=connector;curved=1;rounded=1;orthogonalLoop=1;jettySize=auto;html=1;exitX=1;exitY=0.5;exitDx=0;exitDy=0;entryX=0;entryY=0.5;entryDx=0;entryDy=0;labelBackgroundColor=default;strokeColor=default;fontFamily=Helvetica;fontSize=12;fontColor=default;endArrow=classic;" edge="1" parent="77e6c97f196da883-1" source="57HQDjPQBf11Cq4bDGbG-86" target="57HQDjPQBf11Cq4bDGbG-42">
          <mxGeometry relative="1" as="geometry" />
        </mxCell>
        <mxCell id="57HQDjPQBf11Cq4bDGbG-91" style="edgeStyle=none;shape=connector;curved=1;rounded=1;orthogonalLoop=1;jettySize=auto;html=1;exitX=0.5;exitY=1;exitDx=0;exitDy=0;entryX=1;entryY=0.5;entryDx=0;entryDy=0;labelBackgroundColor=default;strokeColor=default;fontFamily=Helvetica;fontSize=12;fontColor=default;endArrow=classic;" edge="1" parent="77e6c97f196da883-1" source="57HQDjPQBf11Cq4bDGbG-42" target="57HQDjPQBf11Cq4bDGbG-90">
          <mxGeometry relative="1" as="geometry" />
        </mxCell>
        <mxCell id="57HQDjPQBf11Cq4bDGbG-92" style="edgeStyle=none;shape=connector;curved=1;rounded=1;orthogonalLoop=1;jettySize=auto;html=1;exitX=0;exitY=0.5;exitDx=0;exitDy=0;labelBackgroundColor=default;strokeColor=default;fontFamily=Helvetica;fontSize=12;fontColor=default;endArrow=classic;" edge="1" parent="77e6c97f196da883-1" source="57HQDjPQBf11Cq4bDGbG-90" target="57HQDjPQBf11Cq4bDGbG-50">
          <mxGeometry relative="1" as="geometry" />
        </mxCell>
        <mxCell id="57HQDjPQBf11Cq4bDGbG-94" style="edgeStyle=none;shape=connector;curved=1;rounded=1;orthogonalLoop=1;jettySize=auto;html=1;exitX=0.5;exitY=1;exitDx=0;exitDy=0;entryX=0;entryY=0.5;entryDx=0;entryDy=0;labelBackgroundColor=default;strokeColor=default;fontFamily=Helvetica;fontSize=12;fontColor=default;endArrow=classic;" edge="1" parent="77e6c97f196da883-1" source="57HQDjPQBf11Cq4bDGbG-50" target="57HQDjPQBf11Cq4bDGbG-93">
          <mxGeometry relative="1" as="geometry" />
        </mxCell>
        <mxCell id="57HQDjPQBf11Cq4bDGbG-96" value="平台通过" style="edgeStyle=none;shape=connector;curved=1;rounded=1;orthogonalLoop=1;jettySize=auto;html=1;exitX=1;exitY=0.5;exitDx=0;exitDy=0;entryX=0;entryY=0.5;entryDx=0;entryDy=0;labelBackgroundColor=default;strokeColor=default;fontFamily=Helvetica;fontSize=12;fontColor=default;endArrow=classic;" edge="1" parent="77e6c97f196da883-1" source="57HQDjPQBf11Cq4bDGbG-93" target="57HQDjPQBf11Cq4bDGbG-95">
          <mxGeometry relative="1" as="geometry" />
        </mxCell>
        <mxCell id="57HQDjPQBf11Cq4bDGbG-99" value="平台不通过" style="edgeStyle=none;shape=connector;curved=1;rounded=1;orthogonalLoop=1;jettySize=auto;html=1;exitX=0;exitY=1;exitDx=0;exitDy=0;entryX=1;entryY=0.5;entryDx=0;entryDy=0;labelBackgroundColor=default;strokeColor=default;fontFamily=Helvetica;fontSize=12;fontColor=default;endArrow=classic;" edge="1" parent="77e6c97f196da883-1" source="57HQDjPQBf11Cq4bDGbG-93" target="57HQDjPQBf11Cq4bDGbG-97">
          <mxGeometry relative="1" as="geometry" />
        </mxCell>
        <mxCell id="57HQDjPQBf11Cq4bDGbG-100" value="机构不通过" style="edgeStyle=none;shape=connector;curved=1;rounded=1;orthogonalLoop=1;jettySize=auto;html=1;entryX=0.5;entryY=0;entryDx=0;entryDy=0;labelBackgroundColor=default;strokeColor=default;fontFamily=Helvetica;fontSize=12;fontColor=default;endArrow=classic;" edge="1" parent="77e6c97f196da883-1" source="57HQDjPQBf11Cq4bDGbG-95" target="57HQDjPQBf11Cq4bDGbG-98">
          <mxGeometry relative="1" as="geometry" />
        </mxCell>
        <mxCell id="57HQDjPQBf11Cq4bDGbG-101" style="edgeStyle=none;shape=connector;curved=1;rounded=1;orthogonalLoop=1;jettySize=auto;html=1;exitX=0;exitY=0.5;exitDx=0;exitDy=0;entryX=1;entryY=0.75;entryDx=0;entryDy=0;labelBackgroundColor=default;strokeColor=default;fontFamily=Helvetica;fontSize=12;fontColor=default;endArrow=classic;" edge="1" parent="77e6c97f196da883-1" source="57HQDjPQBf11Cq4bDGbG-98" target="57HQDjPQBf11Cq4bDGbG-97">
          <mxGeometry relative="1" as="geometry" />
        </mxCell>
        <mxCell id="57HQDjPQBf11Cq4bDGbG-105" style="edgeStyle=none;shape=connector;curved=1;rounded=1;orthogonalLoop=1;jettySize=auto;html=1;exitX=0.5;exitY=1;exitDx=0;exitDy=0;entryX=1;entryY=0.5;entryDx=0;entryDy=0;labelBackgroundColor=default;strokeColor=default;fontFamily=Helvetica;fontSize=12;fontColor=default;endArrow=classic;" edge="1" parent="77e6c97f196da883-1" source="57HQDjPQBf11Cq4bDGbG-102" target="57HQDjPQBf11Cq4bDGbG-104">
          <mxGeometry relative="1" as="geometry" />
        </mxCell>
        <mxCell id="57HQDjPQBf11Cq4bDGbG-107" style="edgeStyle=none;shape=connector;curved=1;rounded=1;orthogonalLoop=1;jettySize=auto;html=1;exitX=0;exitY=0.5;exitDx=0;exitDy=0;entryX=1;entryY=0.5;entryDx=0;entryDy=0;labelBackgroundColor=default;strokeColor=default;fontFamily=Helvetica;fontSize=12;fontColor=default;endArrow=classic;" edge="1" parent="77e6c97f196da883-1" source="57HQDjPQBf11Cq4bDGbG-104" target="57HQDjPQBf11Cq4bDGbG-106">
          <mxGeometry relative="1" as="geometry" />
        </mxCell>
        <mxCell id="57HQDjPQBf11Cq4bDGbG-114" style="edgeStyle=none;shape=connector;curved=1;rounded=1;orthogonalLoop=1;jettySize=auto;html=1;exitX=1;exitY=1;exitDx=0;exitDy=0;entryX=0;entryY=0;entryDx=0;entryDy=0;labelBackgroundColor=default;strokeColor=#BD7000;fontFamily=Helvetica;fontSize=12;fontColor=default;endArrow=classic;fillColor=#f0a30a;" edge="1" parent="77e6c97f196da883-1" source="57HQDjPQBf11Cq4bDGbG-50" target="57HQDjPQBf11Cq4bDGbG-93">
          <mxGeometry relative="1" as="geometry" />
        </mxCell>
        <mxCell id="57HQDjPQBf11Cq4bDGbG-117" style="edgeStyle=none;shape=connector;curved=1;rounded=1;orthogonalLoop=1;jettySize=auto;html=1;exitX=0;exitY=0.75;exitDx=0;exitDy=0;entryX=0.5;entryY=0;entryDx=0;entryDy=0;labelBackgroundColor=default;strokeColor=#BD7000;fontFamily=Helvetica;fontSize=12;fontColor=default;endArrow=classic;fillColor=#f0a30a;" edge="1" parent="77e6c97f196da883-1" source="57HQDjPQBf11Cq4bDGbG-93" target="57HQDjPQBf11Cq4bDGbG-97">
          <mxGeometry relative="1" as="geometry" />
        </mxCell>
        <mxCell id="57HQDjPQBf11Cq4bDGbG-118" value="平台不通过" style="edgeLabel;html=1;align=center;verticalAlign=middle;resizable=0;points=[];fontSize=12;fontFamily=Helvetica;fontColor=default;" vertex="1" connectable="0" parent="57HQDjPQBf11Cq4bDGbG-117">
          <mxGeometry x="-0.106" y="-2" relative="1" as="geometry">
            <mxPoint as="offset" />
          </mxGeometry>
        </mxCell>
        <mxCell id="57HQDjPQBf11Cq4bDGbG-121" style="edgeStyle=none;shape=connector;curved=1;rounded=1;orthogonalLoop=1;jettySize=auto;html=1;exitX=0;exitY=0.25;exitDx=0;exitDy=0;entryX=1;entryY=0;entryDx=0;entryDy=0;labelBackgroundColor=default;strokeColor=#BD7000;fontFamily=Helvetica;fontSize=12;fontColor=default;endArrow=classic;fillColor=#f0a30a;" edge="1" parent="77e6c97f196da883-1" source="57HQDjPQBf11Cq4bDGbG-104" target="57HQDjPQBf11Cq4bDGbG-106">
          <mxGeometry relative="1" as="geometry" />
        </mxCell>
      </root>
    </mxGraphModel>
  </diagram>
</mxfile>
